<svg viewBox="0 0 96 96" xmlns="http://www.w3.org/2000/svg" xmlns:xlink="http://www.w3.org/1999/xlink" id="Icons_PostitNotes1" overflow="hidden"><path d="M45.613 40 79.276 40 78.081 37.212C76.218 32.864 75.313 23.733 75.313 9.3L75.313 7.3 42 7.3 42 9.3C42 24.5 42.983 33.865 45.094 38.788ZM71.318 11.3C71.388 22.915 72.077 30.92 73.457 36L48.315 36C46.839 31.518 46.08 23.4 46.006 11.3Z"/><path d="M64.509 78.3 90.276 78.3 89.081 75.512C87.218 71.164 86.313 62.033 86.313 47.599L86.313 45.599 53 45.599 53 47.599C53 50.75 53.045 53.637 53.131 56.299L39.39 56.299C38.5588 49.3312 38.1989 42.3153 38.313 35.299L38.313 33.299 5 33.299 5 35.299C5 50.499 5.983 59.864 8.094 64.787L8.613 66 30.343 66C30.643 76.646 31.622 83.787 33.337 87.788L33.856 89 67.521 89 66.321 86.212C65.3792 83.6636 64.7702 81.0043 64.509 78.3ZM82.318 49.6C82.388 61.216 83.077 69.221 84.457 74.3L59.315 74.3C57.839 69.817 57.08 61.7 57.006 49.6ZM9.006 37.3 34.318 37.3C34.388 48.915 35.077 56.92 36.457 62L11.315 62C9.839 57.518 9.08 49.4 9.006 37.3ZM36.561 85C35.341 81.267 34.598 74.891 34.345 66L42.276 66 41.076 63.212C40.686 62.2682 40.373 61.2943 40.14 60.3L53.3 60.3C53.735 68.27 54.65 73.721 56.094 77.088L56.613 78.3 60.475 78.3C60.7253 80.5593 61.1347 82.7982 61.7 85Z"/></svg>