<?xml version="1.0" standalone="no"?>
<!DOCTYPE svg PUBLIC "-//W3C//DTD SVG 20010904//EN"
 "http://www.w3.org/TR/2001/REC-SVG-20010904/DTD/svg10.dtd">
<svg version="1.0" xmlns="http://www.w3.org/2000/svg"
 width="816.000000pt" height="274.000000pt" viewBox="0 0 816.000000 274.000000"
 preserveAspectRatio="xMidYMid meet">

<g transform="translate(0.000000,274.000000) scale(0.100000,-0.100000)"
fill="#000000" stroke="none">
<path d="M4078 2715 c-141 -36 -241 -120 -307 -258 -40 -83 -66 -175 -98 -344
l-17 -93 -118 0 c-116 0 -118 0 -135 -27 -11 -16 -17 -46 -18 -77 l0 -51 118
-3 c64 -1 117 -6 117 -10 0 -36 -286 -1424 -305 -1482 -53 -159 -134 -230
-266 -232 -35 -1 -417 -1 -848 0 -431 1 -795 -1 -808 -4 -29 -8 -53 -51 -53
-99 l0 -35 949 0 949 0 59 39 c92 62 150 144 198 283 15 43 92 401 174 805
l146 728 187 5 c211 6 211 5 224 88 11 71 7 72 -197 72 -99 0 -179 4 -179 9 0
26 44 225 62 281 42 130 85 190 163 226 65 31 173 32 262 4 35 -11 70 -17 78
-14 16 7 35 63 35 106 0 58 -71 88 -225 94 -57 2 -111 -2 -147 -11z"/>
<path d="M532 2703 c-16 -15 -55 -199 -231 -1081 -168 -839 -210 -1066 -200
-1078 16 -19 118 -19 146 1 15 11 25 34 34 85 7 38 15 70 19 70 3 0 22 -16 41
-36 47 -49 128 -101 197 -126 79 -29 271 -32 352 -4 235 79 406 285 505 609
57 186 77 404 51 546 -37 208 -152 327 -337 350 -116 15 -194 0 -318 -60 -90
-44 -116 -63 -196 -142 l-93 -92 20 65 c22 75 178 842 178 876 0 28 -17 34
-90 34 -41 0 -64 -5 -78 -17z m551 -834 c77 -21 145 -113 162 -219 34 -205
-36 -534 -156 -736 -45 -76 -131 -162 -199 -199 -51 -28 -62 -30 -160 -30 -95
0 -111 3 -162 28 -61 30 -139 95 -188 157 l-30 38 35 174 c42 203 64 275 118
383 54 109 112 188 196 268 128 121 265 169 384 136z"/>
<path d="M5050 2039 c-111 -22 -244 -118 -338 -244 -25 -33 -42 -51 -39 -40 3
11 16 71 28 134 22 112 22 114 3 128 -26 20 -132 13 -149 -10 -6 -9 -76 -339
-154 -734 -163 -821 -159 -747 -39 -741 37 2 73 9 78 14 6 6 42 168 80 359 38
192 79 378 90 414 52 161 149 320 263 428 120 114 189 135 311 97 41 -13 62
-15 73 -8 22 14 41 69 42 121 1 37 -3 44 -28 58 -24 12 -151 37 -171 34 -3 -1
-25 -5 -50 -10z"/>
<path d="M6090 2041 c-127 -15 -232 -56 -346 -137 -156 -111 -280 -313 -345
-559 -39 -153 -51 -377 -25 -488 54 -229 227 -345 515 -347 162 0 416 56 458
102 39 44 58 143 28 154 -8 4 -48 -6 -87 -20 -147 -52 -195 -60 -353 -60 -137
-1 -154 1 -203 23 -65 29 -120 91 -147 162 -16 43 -20 78 -20 179 0 69 4 141
8 161 l7 36 223 6 c365 9 553 56 704 176 37 29 60 59 85 108 30 62 33 75 33
163 0 87 -3 100 -30 149 -80 144 -273 218 -505 192z m191 -177 c70 -21 134
-83 145 -139 9 -49 -9 -119 -42 -162 -77 -102 -305 -157 -615 -151 l-146 3 28
68 c81 201 225 341 394 383 71 18 172 17 236 -2z"/>
<path d="M7600 2041 c-127 -15 -232 -56 -346 -137 -156 -111 -280 -313 -345
-559 -39 -153 -51 -377 -25 -488 54 -229 227 -345 515 -347 162 0 416 56 458
102 39 44 58 143 28 154 -8 4 -48 -6 -87 -20 -147 -52 -195 -60 -353 -60 -137
-1 -154 1 -203 23 -65 29 -120 91 -147 162 -16 43 -20 78 -20 179 0 69 4 141
8 161 l7 36 223 6 c365 9 553 56 704 176 37 29 60 59 85 108 30 62 33 75 33
163 0 87 -3 100 -30 149 -80 144 -273 218 -505 192z m191 -177 c70 -21 134
-83 145 -139 9 -49 -9 -119 -42 -162 -77 -102 -305 -157 -615 -151 l-146 3 28
68 c81 201 225 341 394 383 71 18 172 17 236 -2z"/>
</g>
</svg>
